<?xml version="1.0" encoding="UTF-8" standalone="no"?>
<svg
   xmlns:dc="http://purl.org/dc/elements/1.1/"
   xmlns:cc="http://creativecommons.org/ns#"
   xmlns:rdf="http://www.w3.org/1999/02/22-rdf-syntax-ns#"
   xmlns:svg="http://www.w3.org/2000/svg"
   xmlns="http://www.w3.org/2000/svg"
   id="svg4601"
   version="1.1"
   viewBox="0 0 64 64"
   height="64"
   width="64">
  <defs
     id="defs4595" />
  <metadata
     id="metadata4598">
    <rdf:RDF>
      <cc:Work
         rdf:about="">
        <dc:format>image/svg+xml</dc:format>
        <dc:type
           rdf:resource="http://purl.org/dc/dcmitype/StillImage" />
        <dc:title></dc:title>
      </cc:Work>
    </rdf:RDF>
  </metadata>
  <g
     transform="translate(0,0)"
     id="layer1">
    <path
       style="opacity:1;fill:#4d4d4d;fill-opacity:1;stroke:#ffffff;stroke-width:4;stroke-miterlimit:4;stroke-dasharray:none;stroke-opacity:1"
       d="m 9.3169158,2.0001962 c -4.0536609,0 -7.3167928,3.2631 -7.3167928,7.3168 V 46.169896 l 15.829371,15.8301 h 36.85358 c 4.053661,0 7.316793,-3.2632 7.316793,-7.3168 v -43.1954 l -9.48762,-9.4875998 z"
       id="use4177" />
    <path
       id="path5200"
       d="M 24.1875 11 L 31.291016 18.107422 C 31.486885 18.303322 31.744381 18.400391 32 18.400391 C 32.255619 18.400391 32.513115 18.303422 32.708984 18.107422 L 39.8125 11 L 24.1875 11 z M 42.605469 17.5625 C 42.349888 17.5625 42.094307 17.661522 41.898438 17.857422 L 32 27.755859 L 22.099609 17.857422 C 21.90374 17.661622 21.648197 17.564453 21.392578 17.564453 C 21.136959 17.564453 20.881416 17.661522 20.685547 17.857422 L 17.857422 20.685547 C 17.465685 21.077247 17.465685 21.707909 17.857422 22.099609 L 27.755859 32 L 17.857422 41.898438 C 17.465685 42.290137 17.465685 42.9208 17.857422 43.3125 L 20.685547 46.142578 C 21.077285 46.534278 21.707872 46.534278 22.099609 46.142578 L 32 36.242188 L 41.898438 46.142578 C 42.290174 46.534278 42.920761 46.534278 43.3125 46.142578 L 46.142578 43.3125 C 46.534315 42.9208 46.534315 42.290137 46.142578 41.898438 L 36.242188 32 L 46.142578 22.099609 C 46.534315 21.707909 46.534315 21.077247 46.142578 20.685547 L 43.3125 17.857422 C 43.11663 17.661522 42.861051 17.5625 42.605469 17.5625 z M 32 45.599609 C 31.744381 45.599609 31.486885 45.696578 31.291016 45.892578 L 24.1875 53 L 39.8125 53 L 32.708984 45.892578 C 32.513115 45.696678 32.255619 45.599609 32 45.599609 z "
       style="opacity:1;fill:#d8a03f;fill-opacity:1;fill-rule:nonzero;stroke:none;stroke-width:1;stroke-miterlimit:4;stroke-dasharray:none;stroke-opacity:0.49803922;paint-order:stroke fill markers"
       transform="translate(0,0)" />
  </g>
</svg>
