<?xml version="1.0" encoding="UTF-8" standalone="no"?>
<svg
   xmlns:dc="http://purl.org/dc/elements/1.1/"
   xmlns:cc="http://creativecommons.org/ns#"
   xmlns:rdf="http://www.w3.org/1999/02/22-rdf-syntax-ns#"
   xmlns:svg="http://www.w3.org/2000/svg"
   xmlns="http://www.w3.org/2000/svg"
   id="svg8"
   version="1.1"
   viewBox="0 0 32 32"
   height="32"
   width="32">
  <defs
     id="defs2" />
  <metadata
     id="metadata5">
    <rdf:RDF>
      <cc:Work
         rdf:about="">
        <dc:format>image/svg+xml</dc:format>
        <dc:type
           rdf:resource="http://purl.org/dc/dcmitype/StillImage" />
        <dc:title></dc:title>
      </cc:Work>
    </rdf:RDF>
  </metadata>
  <g
     id="layer1">
    <circle
       r="16"
       cy="16"
       cx="16"
       id="path4505"
       style="opacity:1;fill:#999999;fill-opacity:1;fill-rule:nonzero;stroke:none;paint-order:stroke fill markers" />
    <path
       id="path5070"
       d="m 16,3.2812515 c -0.652084,-3e-7 -1.231228,-0.00894 -1.859375,0.011719 -0.275891,0.00907 -0.49137,0.2288099 -0.53125,0.5019531 L 13.148438,6.9531265 A 9.5,9.5 0 0 0 11.613281,7.5820327 L 9.060547,5.6796889 C 8.839205,5.5147484 8.531577,5.5105512 8.330078,5.6992202 7.871304,6.1287805 7.466951,6.5447676 7.005859,7.0058608 6.544765,7.4669536 6.128778,7.8713044 5.699219,8.3300796 5.510548,8.5315774 5.51475,8.8392074 5.679688,9.0605483 l 1.902343,2.5546877 a 9.5,9.5 0 0 0 -0.640625,1.535156 l -3.146484,0.458985 c -0.273144,0.03988 -0.492881,0.255359 -0.501953,0.53125 -0.02066,0.628147 -0.011719,1.207291 -0.011719,1.859375 0,0.652084 -0.0089,1.231228 0.011719,1.859375 0.0091,0.275891 0.22881,0.49137 0.501953,0.53125 l 3.152344,0.460937 a 9.5,9.5 0 0 0 0.630859,1.539063 l -1.898437,2.550781 c -0.164941,0.221342 -0.169142,0.52897 0.019531,0.730469 0.42956,0.458774 0.845546,0.861173 1.30664,1.322265 0.461092,0.461094 0.865444,0.877082 1.324219,1.306641 0.201498,0.188671 0.509128,0.186422 0.730469,0.02148 l 2.550781,-1.90039 a 9.5,9.5 0 0 0 1.539063,0.642578 l 0.458984,3.140625 c 0.03988,0.273144 0.255359,0.492881 0.53125,0.501953 0.628147,0.02066 1.207291,0.01172 1.859375,0.01172 0.652084,0 1.231228,0.0089 1.859375,-0.01172 0.275891,-0.0091 0.49137,-0.22881 0.53125,-0.501953 l 0.458984,-3.150391 a 9.5,9.5 0 0 0 1.541016,-0.630859 l 2.548828,1.898437 c 0.221342,0.16494 0.52897,0.167189 0.730469,-0.02148 0.458774,-0.42956 0.863127,-0.845547 1.324219,-1.306641 0.461094,-0.461092 0.877081,-0.86349 1.30664,-1.322265 0.188671,-0.201498 0.184469,-0.509128 0.01953,-0.730469 l -1.90039,-2.552734 A 9.5,9.5 0 0 0 25.0625,18.849611 l 3.142578,-0.458984 c 0.273144,-0.03988 0.492881,-0.255359 0.501953,-0.53125 0.02066,-0.628147 0.01172,-1.207291 0.01172,-1.859375 10e-7,-0.652084 0.0089,-1.231228 -0.01172,-1.859375 -0.0091,-0.275891 -0.22881,-0.49137 -0.501953,-0.53125 l -3.15625,-0.460938 a 9.5,9.5 0 0 0 -0.628906,-1.535156 l 1.90039,-2.5527347 C 26.485253,8.839206 26.489454,8.5315795 26.300781,8.3300796 25.871221,7.8713059 25.455235,7.4669536 24.994141,7.0058608 24.533049,6.5447676 24.128697,6.1287791 23.669922,5.6992202 23.468424,5.5105493 23.160794,5.514747 22.939453,5.6796889 L 20.384766,7.5839858 A 9.5,9.5 0 0 0 18.849609,6.9433608 L 18.390625,3.7949233 C 18.350743,3.5217801 18.135266,3.302043 17.859375,3.2929702 17.231228,3.2723132 16.652084,3.2812512 16,3.2812515 Z m 0,8.7226565 a 4,4 0 0 1 4,4 4,4 0 0 1 -4,4 4,4 0 0 1 -4,-4 4,4 0 0 1 4,-4 z"
       style="opacity:1;fill:#373737;fill-opacity:1;fill-rule:nonzero;stroke:none;stroke-width:0.99288893;stroke-miterlimit:4;stroke-dasharray:none;stroke-opacity:0.49803922;paint-order:stroke fill markers" />
  </g>
</svg>
