<?xml version="1.0" encoding="UTF-8" standalone="no"?>
<svg
   xmlns:dc="http://purl.org/dc/elements/1.1/"
   xmlns:cc="http://creativecommons.org/ns#"
   xmlns:rdf="http://www.w3.org/1999/02/22-rdf-syntax-ns#"
   xmlns:svg="http://www.w3.org/2000/svg"
   xmlns="http://www.w3.org/2000/svg"
   width="30"
   height="16"
   viewBox="0 0 30 16"
   version="1.1"
   id="svg5709">
  <defs
     id="defs5703" />
  <metadata
     id="metadata5706">
    <rdf:RDF>
      <cc:Work
         rdf:about="">
        <dc:format>image/svg+xml</dc:format>
        <dc:type
           rdf:resource="http://purl.org/dc/dcmitype/StillImage" />
        <dc:title></dc:title>
      </cc:Work>
    </rdf:RDF>
  </metadata>
  <path
     style="color:#000000;font-style:normal;font-variant:normal;font-weight:normal;font-stretch:normal;font-size:medium;line-height:normal;font-family:sans-serif;text-indent:0;text-align:start;text-decoration:none;text-decoration-line:none;text-decoration-style:solid;text-decoration-color:#000000;letter-spacing:normal;word-spacing:normal;text-transform:none;writing-mode:lr-tb;direction:ltr;baseline-shift:baseline;text-anchor:start;white-space:normal;clip-rule:nonzero;display:inline;overflow:visible;visibility:visible;opacity:1;isolation:auto;mix-blend-mode:normal;color-interpolation:sRGB;color-interpolation-filters:linearRGB;solid-color:#000000;solid-opacity:1;fill:#dcdcdc;fill-opacity:1;fill-rule:nonzero;stroke:none;stroke-width:5.08515596;stroke-linecap:butt;stroke-linejoin:round;stroke-miterlimit:4;stroke-dasharray:none;stroke-dashoffset:0;stroke-opacity:1;color-rendering:auto;image-rendering:auto;shape-rendering:auto;text-rendering:auto;enable-background:accumulate"
     d="M 22.0299,5.446794e-5 C 19.5322,-0.00694554 17.06649,0.42010446 15.49479,1.2234944 c -0.9378,0.47937 -1.43336,0.9875 -1.54736,1.58635 -0.0433,0.22794 -0.0396,2.20458 0.005,2.41214 0.0195,0.0912 0.0744,0.24341 0.1224,0.33809 0.63765,1.26091 3.41935,2.23768 6.86196,2.40959 1.03388,0.0516 2.64233,-0.0106 3.63116,-0.14044 2.87586,-0.37753 4.89315,-1.29136 5.34773,-2.42247 0.0677,-0.16835 0.0711,-0.22102 0.0814,-1.30216 0.012,-1.22831 -0.001,-1.38041 -0.15057,-1.67307 -0.40175,-0.79068 -1.65382,-1.48948994 -3.47212,-1.93770994 -1.33555,-0.32922 -2.84564,-0.48958 -4.34428,-0.49375999206 z M 0.25095,3.0000844 C 0.11175,3.0020844 3e-5,3.1151344 0,3.2537944 v 9.4924806 c 2e-5,0.22607 0.27437,0.3393 0.43489,0.17949 L 5.1995,8.1794244 c 0.0994,-0.0991 0.0994,-0.25969 0,-0.35879 l -4.76461,-4.74633 c -0.0487,-0.0485 -0.11505,-0.0753 -0.18394,-0.0743 z m 5.71419,0 c -0.1392,0.002 -0.25094,0.11505 -0.25097,0.25371 v 9.4924806 c 2e-5,0.22607 0.27437,0.3393 0.43488,0.17949 l 4.76463,-4.7463406 c 0.0994,-0.0991 0.0994,-0.25969 0,-0.35879 l -4.76463,-4.74633 c -0.0487,-0.0485 -0.11506,-0.0753 -0.18391,-0.0743 z m 24.00058,3.88031 c -0.0171,0.006 -0.0458,0.0575 -0.10561,0.17676 -0.23337,0.46467 -0.74308,0.88712 -1.53775,1.27462 -1.27044,0.61948 -3.02836,1.01178 -5.12129,1.14259 -1.19931,0.075 -2.93433,0.007 -4.11584,-0.16113 -2.5742,-0.3663 -4.5128,-1.23566 -5.02362,-2.25276 -0.0717,-0.14261 -0.114,-0.19839 -0.1263,-0.16641 -0.0349,0.0907 -0.0199,2.16116 0.0168,2.334 0.0195,0.0912 0.0745,0.24343 0.1224,0.3381 0.63765,1.2609106 3.41935,2.2376706 6.86196,2.4095906 0.68295,0.0341 1.97445,0.0116 2.70437,-0.0473 3.30783,-0.26664 5.76694,-1.25246 6.27452,-2.5154606 0.0677,-0.16833 0.0711,-0.22101 0.0814,-1.29941 0.006,-0.61812 0.002,-1.15762 -0.007,-1.19904 -0.006,-0.0247 -0.012,-0.0377 -0.0228,-0.0342 z m 0,4.0060906 c -0.0171,0.006 -0.0458,0.0575 -0.10561,0.17676 -0.23337,0.46467 -0.74308,0.88732 -1.53775,1.27481 -1.26549,0.61707 -3.00555,1.00646 -5.1048,1.1424 -1.17839,0.0763 -2.94932,0.007 -4.13233,-0.16114 -2.5742,-0.36629 -4.5128,-1.23564 -5.02362,-2.25275 -0.0717,-0.14261 -0.114,-0.19819 -0.1263,-0.16621 -0.0349,0.0908 -0.0199,2.16115 0.0168,2.33401 0.0195,0.0912 0.0745,0.24321 0.1224,0.33788 0.63765,1.26092 3.41935,2.23768 6.86196,2.4096 1.03387,0.0516 2.64234,-0.0104 3.63117,-0.14023 2.87583,-0.37755 4.89314,-1.29136 5.34772,-2.42249 0.0677,-0.16834 0.0711,-0.22083 0.0814,-1.29923 0.006,-0.61811 0.002,-1.15781 -0.007,-1.19923 -0.006,-0.0247 -0.012,-0.0377 -0.0228,-0.0342 z"
     id="path4708" />
</svg>
