<?xml version="1.0" encoding="UTF-8" standalone="no"?>
<svg
   xmlns:dc="http://purl.org/dc/elements/1.1/"
   xmlns:cc="http://creativecommons.org/ns#"
   xmlns:rdf="http://www.w3.org/1999/02/22-rdf-syntax-ns#"
   xmlns:svg="http://www.w3.org/2000/svg"
   xmlns="http://www.w3.org/2000/svg"
   width="33"
   height="16"
   viewBox="0 0 33 16"
   version="1.1"
   id="svg6275">
  <defs
     id="defs6269" />
  <metadata
     id="metadata6272">
    <rdf:RDF>
      <cc:Work
         rdf:about="">
        <dc:format>image/svg+xml</dc:format>
        <dc:type
           rdf:resource="http://purl.org/dc/dcmitype/StillImage" />
        <dc:title></dc:title>
      </cc:Work>
    </rdf:RDF>
  </metadata>
  <path
     id="path4454"
     d="M 0.76102,0 0,0.75977 v 11.38281 l 0.76102,0.75976 h 6.64579 v 1.58007 H 5.25285 V 16 h 8.86821 v -1.51759 h -2.15397 v -1.58007 h 6.64578 l 0.75907,-0.75976 V 0.75977 L 18.61287,0 Z M 1.5201,1.51758 H 17.85185 V 11.3828 H 1.5201 Z M 27.00961,3 c -0.0647,0.002 -0.12633,0.0285 -0.17215,0.0742 l -4.75399,4.74609 c -0.0993,0.0991 -0.0993,0.26027 0,0.35938 l 4.75399,4.74609 c 0.16013,0.15976 0.43421,0.0463 0.43429,-0.17969 V 3.25389 c -6e-5,-0.14307 -0.1189,-0.25814 -0.26214,-0.25391 z m 5.72825,0 c -0.0647,0.002 -0.12633,0.0285 -0.17216,0.0742 l -4.75399,4.74609 c -0.0993,0.0991 -0.0993,0.26027 0,0.35938 l 4.75399,4.74609 c 0.16014,0.15976 0.43422,0.0463 0.4343,-0.17969 V 3.25389 c -6e-5,-0.14307 -0.11892,-0.25814 -0.26214,-0.25391 z"
     style="color:#000000;font-style:normal;font-variant:normal;font-weight:normal;font-stretch:normal;font-size:medium;line-height:normal;font-family:sans-serif;text-indent:0;text-align:start;text-decoration:none;text-decoration-line:none;text-decoration-style:solid;text-decoration-color:#000000;letter-spacing:normal;word-spacing:normal;text-transform:none;writing-mode:lr-tb;direction:ltr;baseline-shift:baseline;text-anchor:start;white-space:normal;clip-rule:nonzero;display:inline;overflow:visible;visibility:visible;opacity:1;isolation:auto;mix-blend-mode:normal;color-interpolation:sRGB;color-interpolation-filters:linearRGB;solid-color:#000000;solid-opacity:1;fill:#dcdcdc;fill-opacity:1;fill-rule:nonzero;stroke:none;stroke-width:12.00995636;stroke-linecap:butt;stroke-linejoin:bevel;stroke-miterlimit:4;stroke-dasharray:none;stroke-dashoffset:0;stroke-opacity:1;color-rendering:auto;image-rendering:auto;shape-rendering:auto;text-rendering:auto;enable-background:accumulate" />
</svg>
